<svg xmlns="http://www.w3.org/2000/svg" xmlns:xlink="http://www.w3.org/1999/xlink" width="500" zoomAndPan="magnify" viewBox="0 0 375 374.999991" height="500" preserveAspectRatio="xMidYMid meet" version="1.0"><defs><g/><clipPath id="fa0e16e37d"><path d="M 147.589844 120 L 227.394531 120 L 227.394531 199.675781 L 147.589844 199.675781 Z M 147.589844 120 " clip-rule="nonzero"/></clipPath><clipPath id="2eaadd17d7"><path d="M 183.585938 174.894531 L 176.773438 175.105469 C 174.710938 175.167969 173.679688 174.171875 173.679688 172.117188 L 173.679688 171.210938 C 173.6875 169.652344 174.46875 168.890625 176.023438 168.921875 L 183.839844 169.074219 C 184.230469 169.085938 184.421875 168.890625 184.421875 168.503906 L 184.480469 152.585938 C 184.480469 151.386719 183.882812 150.789062 182.683594 150.789062 L 174.597656 150.808594 C 173.375 150.808594 172.734375 151.421875 172.671875 152.65625 L 172.308594 160.464844 C 172.246094 161.800781 171.121094 162.839844 169.789062 162.777344 L 169.75 162.777344 L 168.890625 162.71875 C 166.835938 162.589844 165.886719 161.492188 166.042969 159.441406 L 166.597656 152.332031 C 166.683594 151.296875 166.207031 150.777344 165.160156 150.777344 L 156.875 150.816406 C 155.6875 150.816406 155.015625 151.40625 154.867188 152.585938 L 153.898438 160.242188 C 153.683594 161.980469 152.703125 162.828125 150.957031 162.789062 L 150.347656 162.777344 C 148.972656 162.75 147.878906 161.609375 147.902344 160.226562 C 148.285156 140.914062 160.363281 125.558594 179.085938 121.160156 C 196.457031 117.0625 214.851562 126.179688 222.945312 142 C 232.117188 159.898438 225.546875 182.878906 208.558594 193.433594 C 199.640625 198.972656 189.671875 200.625 178.648438 198.394531 C 177.386719 198.144531 176.550781 196.9375 176.757812 195.664062 L 176.898438 194.835938 C 177.140625 193.292969 178.585938 192.242188 180.128906 192.484375 L 180.1875 192.496094 L 183.6875 193.167969 C 184.023438 193.230469 184.351562 193.007812 184.414062 192.671875 L 184.421875 192.59375 L 184.445312 175.71875 C 184.445312 175.140625 184.15625 174.871094 183.578125 174.890625 " clip-rule="nonzero"/></clipPath><clipPath id="8fc28a41fa"><path d="M 174.300781 127.125 L 184.523438 127.125 L 184.523438 144.933594 L 174.300781 144.933594 Z M 174.300781 127.125 " clip-rule="nonzero"/></clipPath><clipPath id="0620e85649"><path d="M 174.601562 142.960938 C 176.527344 136.890625 178.675781 131.605469 183.5625 127.378906 L 184.128906 127.210938 L 184.453125 127.65625 L 184.464844 142.847656 C 184.464844 144.066406 183.863281 144.667969 182.65625 144.667969 L 175.859375 144.667969 C 174.652344 144.679688 174.234375 144.101562 174.601562 142.953125 " clip-rule="nonzero"/></clipPath><clipPath id="4e15e14f99"><path d="M 190.460938 127.125 L 201 127.125 L 201 144.933594 L 190.460938 144.933594 Z M 190.460938 127.125 " clip-rule="nonzero"/></clipPath><clipPath id="4c6384376d"><path d="M 196.839844 133.347656 L 200.820312 143.441406 C 201 143.886719 200.785156 144.402344 200.339844 144.578125 L 200.128906 144.644531 L 191.371094 144.699219 C 190.890625 144.699219 190.496094 144.308594 190.496094 143.824219 L 190.496094 128.175781 C 190.496094 127.695312 190.882812 127.300781 191.367188 127.300781 L 191.863281 127.410156 L 196.691406 133.117188 C 196.753906 133.183594 196.804688 133.261719 196.839844 133.347656 " clip-rule="nonzero"/></clipPath><clipPath id="ed7ed17a13"><path d="M 157.8125 129.761719 L 173.640625 129.761719 L 173.640625 144.933594 L 157.8125 144.933594 Z M 157.8125 129.761719 " clip-rule="nonzero"/></clipPath><clipPath id="9b3037d6c2"><path d="M 173.164062 130.546875 C 170.886719 134.804688 169.117188 138.644531 167.839844 144.347656 L 167.617188 144.699219 L 158.203125 144.652344 C 158.070312 144.660156 157.96875 144.554688 157.96875 144.417969 L 157.976562 144.339844 C 161.339844 137.957031 166.226562 133.195312 172.652344 130.023438 L 173.535156 129.847656 " clip-rule="nonzero"/></clipPath><clipPath id="b0db4183c5"><path d="M 201.671875 129.433594 L 217.171875 129.433594 L 217.171875 144.933594 L 201.671875 144.933594 Z M 201.671875 129.433594 " clip-rule="nonzero"/></clipPath><clipPath id="ec524846ea"><path d="M 207.707031 144.570312 L 207.289062 144.40625 C 206.144531 139.386719 204.386719 134.839844 201.976562 130.558594 L 201.714844 129.578125 C 208.824219 133.289062 213.679688 138.0625 217.078125 144.328125 L 217.09375 144.542969 L 216.9375 144.617188 Z M 207.707031 144.570312 " clip-rule="nonzero"/></clipPath><clipPath id="ba1bf39ebe"><path d="M 190.460938 150.539062 L 202.660156 150.539062 L 202.660156 169 L 190.460938 169 Z M 190.460938 150.539062 " clip-rule="nonzero"/></clipPath><clipPath id="54cdba3e79"><path d="M 191.460938 150.816406 L 201.5 150.816406 C 202.054688 150.816406 202.5 151.265625 202.5 151.816406 L 202.5 167.96875 C 202.5 168.523438 202.050781 168.96875 201.5 168.96875 L 191.460938 168.96875 C 190.90625 168.96875 190.460938 168.519531 190.460938 167.96875 L 190.460938 151.816406 C 190.460938 151.261719 190.910156 150.816406 191.460938 150.816406 " clip-rule="nonzero"/></clipPath><clipPath id="a5bd4f9652"><path d="M 208.265625 150.539062 L 221 150.539062 L 221 169.335938 L 208.265625 169.335938 Z M 208.265625 150.539062 " clip-rule="nonzero"/></clipPath><clipPath id="3e26d9c644"><path d="M 208.5 151.703125 C 208.5 151.171875 208.929688 150.746094 209.460938 150.746094 L 218.335938 150.746094 C 219.746094 150.746094 220.890625 153.730469 220.890625 157.414062 L 220.890625 162.640625 C 220.890625 166.320312 219.746094 169.304688 218.335938 169.304688 L 209.460938 169.304688 C 208.929688 169.304688 208.5 168.875 208.5 168.347656 Z M 208.5 151.703125 " clip-rule="nonzero"/></clipPath><clipPath id="ccb16cffe9"><path d="M 148.25 166.367188 L 172.652344 166.367188 L 172.652344 197.695312 L 148.25 197.695312 Z M 148.25 166.367188 " clip-rule="nonzero"/></clipPath><clipPath id="c05617f04a"><path d="M 151.808594 180.535156 C 151.800781 177.582031 151.4375 174.277344 152.535156 171.714844 C 154.714844 166.625 160.914062 164.886719 165.371094 168 C 169.703125 171.019531 169.164062 175.746094 169.023438 180.402344 C 169.003906 180.957031 169.441406 181.417969 169.992188 181.433594 L 170.210938 181.425781 C 170.832031 181.246094 171.355469 181.1875 171.890625 181.230469 L 172.609375 181.585938 L 172.613281 196.589844 C 172.613281 197.050781 172.234375 197.429688 171.773438 197.429688 L 148.925781 197.441406 C 148.492188 197.441406 148.269531 197.226562 148.269531 196.785156 L 148.261719 181.824219 C 148.261719 181.382812 148.480469 181.167969 148.925781 181.183594 L 151.058594 181.253906 C 151.457031 181.269531 151.792969 180.953125 151.804688 180.554688 L 151.804688 180.539062 " clip-rule="nonzero"/></clipPath><clipPath id="9be4a53157"><path d="M 156.492188 171.3125 L 164 171.3125 L 164 181.535156 L 156.492188 181.535156 Z M 156.492188 171.3125 " clip-rule="nonzero"/></clipPath><clipPath id="41e2ea7805"><path d="M 157.683594 181.1875 C 157.164062 181.183594 156.75 180.765625 156.75 180.246094 L 156.785156 175.320312 C 156.800781 173.226562 158.316406 171.539062 160.167969 171.550781 L 160.496094 171.550781 C 162.351562 171.5625 163.84375 173.269531 163.828125 175.363281 L 163.828125 175.367188 L 163.792969 180.292969 C 163.792969 180.8125 163.367188 181.234375 162.847656 181.234375 L 162.839844 181.234375 Z M 157.683594 181.1875 " clip-rule="nonzero"/></clipPath><clipPath id="481b313394"><path d="M 201.34375 174.613281 L 217.171875 174.613281 L 217.171875 190 L 201.34375 190 Z M 201.34375 174.613281 " clip-rule="nonzero"/></clipPath><clipPath id="4b19da898e"><path d="M 201.964844 189.132812 C 204.066406 185.097656 205.699219 180.875 206.863281 176.472656 C 207.128906 175.457031 207.785156 174.933594 208.835938 174.902344 L 216.054688 174.703125 C 216.570312 174.679688 217.003906 175.078125 217.027344 175.59375 L 216.988281 175.957031 C 213.414062 182.039062 208.636719 186.585938 202.566406 189.753906 L 201.507812 189.988281 " clip-rule="nonzero"/></clipPath><clipPath id="b8ba806f11"><path d="M 190.460938 175 L 201 175 L 201 192.417969 L 190.460938 192.417969 Z M 190.460938 175 " clip-rule="nonzero"/></clipPath><clipPath id="34216f4c29"><path d="M 190.515625 191.5625 L 190.460938 175.914062 C 190.460938 175.441406 190.84375 175.0625 191.308594 175.0625 L 200.003906 175.015625 C 200.476562 175.011719 200.859375 175.390625 200.863281 175.859375 L 200.847656 176.070312 L 197.296875 185.761719 C 197.265625 185.855469 197.21875 185.941406 197.15625 186.019531 L 192.023438 192.105469 C 191.71875 192.46875 191.183594 192.515625 190.820312 192.210938 L 190.515625 191.808594 " clip-rule="nonzero"/></clipPath></defs><rect x="-37.5" width="450" fill="#ffffff" y="-37.499999" height="449.999989" fill-opacity="1"/><rect x="-37.5" width="450" fill="#012049" y="-37.499999" height="449.999989" fill-opacity="1"/><g clip-path="url(#fa0e16e37d)"><g clip-path="url(#2eaadd17d7)"><path fill="#38b6ff" d="M 145.28125 117.5625 L 229.703125 117.5625 L 229.703125 201.984375 L 145.28125 201.984375 Z M 145.28125 117.5625 " fill-opacity="1" fill-rule="nonzero"/></g></g><g clip-path="url(#8fc28a41fa)"><g clip-path="url(#0620e85649)"><path fill="#012049" d="M 145.28125 117.5625 L 229.703125 117.5625 L 229.703125 201.984375 L 145.28125 201.984375 Z M 145.28125 117.5625 " fill-opacity="1" fill-rule="nonzero"/></g></g><g clip-path="url(#4e15e14f99)"><g clip-path="url(#4c6384376d)"><path fill="#012049" d="M 145.28125 117.5625 L 229.703125 117.5625 L 229.703125 201.984375 L 145.28125 201.984375 Z M 145.28125 117.5625 " fill-opacity="1" fill-rule="nonzero"/></g></g><g clip-path="url(#ed7ed17a13)"><g clip-path="url(#9b3037d6c2)"><path fill="#012049" d="M 145.28125 117.5625 L 229.703125 117.5625 L 229.703125 201.984375 L 145.28125 201.984375 Z M 145.28125 117.5625 " fill-opacity="1" fill-rule="nonzero"/></g></g><g clip-path="url(#b0db4183c5)"><g clip-path="url(#ec524846ea)"><path fill="#012049" d="M 145.28125 117.5625 L 229.703125 117.5625 L 229.703125 201.984375 L 145.28125 201.984375 Z M 145.28125 117.5625 " fill-opacity="1" fill-rule="nonzero"/></g></g><g clip-path="url(#ba1bf39ebe)"><g clip-path="url(#54cdba3e79)"><path fill="#012049" d="M 145.28125 117.5625 L 229.703125 117.5625 L 229.703125 201.984375 L 145.28125 201.984375 Z M 145.28125 117.5625 " fill-opacity="1" fill-rule="nonzero"/></g></g><g clip-path="url(#a5bd4f9652)"><g clip-path="url(#3e26d9c644)"><path fill="#012049" d="M 145.28125 117.5625 L 229.703125 117.5625 L 229.703125 201.984375 L 145.28125 201.984375 Z M 145.28125 117.5625 " fill-opacity="1" fill-rule="nonzero"/></g></g><g clip-path="url(#ccb16cffe9)"><g clip-path="url(#c05617f04a)"><path fill="#38b6ff" d="M 145.28125 117.5625 L 229.703125 117.5625 L 229.703125 201.984375 L 145.28125 201.984375 Z M 145.28125 117.5625 " fill-opacity="1" fill-rule="nonzero"/></g></g><g clip-path="url(#9be4a53157)"><g clip-path="url(#41e2ea7805)"><path fill="#012049" d="M 145.28125 117.5625 L 229.703125 117.5625 L 229.703125 201.984375 L 145.28125 201.984375 Z M 145.28125 117.5625 " fill-opacity="1" fill-rule="nonzero"/></g></g><g clip-path="url(#481b313394)"><g clip-path="url(#4b19da898e)"><path fill="#012049" d="M 145.28125 117.5625 L 229.703125 117.5625 L 229.703125 201.984375 L 145.28125 201.984375 Z M 145.28125 117.5625 " fill-opacity="1" fill-rule="nonzero"/></g></g><g clip-path="url(#b8ba806f11)"><g clip-path="url(#34216f4c29)"><path fill="#012049" d="M 145.28125 117.5625 L 229.703125 117.5625 L 229.703125 201.984375 L 145.28125 201.984375 Z M 145.28125 117.5625 " fill-opacity="1" fill-rule="nonzero"/></g></g><g fill="#ffffff" fill-opacity="1"><g transform="translate(44.444928, 235.261211)"><g><path d="M 10.34375 -19.390625 C 11.394531 -19.390625 12.3125 -19.144531 13.09375 -18.65625 C 13.875 -18.175781 14.472656 -17.550781 14.890625 -16.78125 C 15.304688 -16.007812 15.515625 -15.195312 15.515625 -14.34375 C 15.515625 -13.644531 15.359375 -12.960938 15.046875 -12.296875 C 14.742188 -11.628906 14.257812 -11.050781 13.59375 -10.5625 C 14.695312 -10.101562 15.472656 -9.421875 15.921875 -8.515625 C 16.367188 -7.609375 16.59375 -6.695312 16.59375 -5.78125 C 16.59375 -4.832031 16.378906 -3.914062 15.953125 -3.03125 C 15.535156 -2.144531 14.914062 -1.414062 14.09375 -0.84375 C 13.269531 -0.28125 12.25 0 11.03125 0 L 2.359375 0 L 2.359375 -19.390625 Z M 10.28125 -11.546875 C 11.050781 -11.546875 11.632812 -11.828125 12.03125 -12.390625 C 12.4375 -12.960938 12.640625 -13.578125 12.640625 -14.234375 C 12.640625 -14.867188 12.453125 -15.445312 12.078125 -15.96875 C 11.703125 -16.488281 11.125 -16.75 10.34375 -16.75 L 5.09375 -16.75 L 5.09375 -11.546875 Z M 11.03125 -2.6875 C 11.644531 -2.6875 12.15625 -2.835938 12.5625 -3.140625 C 12.976562 -3.441406 13.289062 -3.828125 13.5 -4.296875 C 13.71875 -4.773438 13.828125 -5.265625 13.828125 -5.765625 C 13.828125 -6.273438 13.71875 -6.753906 13.5 -7.203125 C 13.289062 -7.660156 12.976562 -8.039062 12.5625 -8.34375 C 12.15625 -8.644531 11.644531 -8.796875 11.03125 -8.796875 L 5.09375 -8.796875 L 5.09375 -2.6875 Z M 11.03125 -2.6875 "/></g></g></g><g fill="#ffffff" fill-opacity="1"><g transform="translate(62.052909, 235.261211)"><g><path d="M 9.34375 -9.734375 C 10.132812 -9.734375 10.785156 -9.894531 11.296875 -10.21875 C 11.804688 -10.550781 12.1875 -10.972656 12.4375 -11.484375 C 12.695312 -11.992188 12.828125 -12.523438 12.828125 -13.078125 C 12.828125 -13.628906 12.695312 -14.175781 12.4375 -14.71875 C 12.1875 -15.269531 11.804688 -15.726562 11.296875 -16.09375 C 10.785156 -16.457031 10.132812 -16.640625 9.34375 -16.640625 L 5.09375 -16.640625 L 5.09375 0 L 2.359375 0 L 2.359375 -19.4375 L 9.34375 -19.4375 C 10.382812 -19.4375 11.296875 -19.25 12.078125 -18.875 C 12.867188 -18.5 13.523438 -18.003906 14.046875 -17.390625 C 14.566406 -16.785156 14.957031 -16.109375 15.21875 -15.359375 C 15.476562 -14.609375 15.609375 -13.847656 15.609375 -13.078125 C 15.609375 -12.179688 15.421875 -11.316406 15.046875 -10.484375 C 14.679688 -9.648438 14.128906 -8.945312 13.390625 -8.375 C 12.648438 -7.800781 11.734375 -7.414062 10.640625 -7.21875 L 16.703125 0 L 13.109375 0 L 6.109375 -8.421875 L 6.109375 -9.734375 Z M 9.34375 -9.734375 "/></g></g></g><g fill="#ffffff" fill-opacity="1"><g transform="translate(78.399257, 235.261211)"><g><path d="M 8.6875 -16.8125 L 8.6875 -2.578125 L 12.25 -2.578125 L 12.25 0 L 2.359375 0 L 2.359375 -2.578125 L 5.921875 -2.578125 L 5.921875 -16.8125 L 2.359375 -16.8125 L 2.359375 -19.359375 L 12.25 -19.359375 L 12.25 -16.8125 Z M 8.6875 -16.8125 "/></g></g></g><g fill="#ffffff" fill-opacity="1"><g transform="translate(92.990293, 235.261211)"><g><path d="M 2.359375 0 L 2.359375 -19.203125 L 4.609375 -19.203125 L 10.9375 -9.875 L 17.28125 -19.203125 L 19.46875 -19.203125 L 19.46875 0 L 16.734375 0 L 16.734375 -13.515625 L 11.703125 -6.0625 L 10.140625 -6.0625 L 5.125 -13.515625 L 5.125 0 Z M 2.359375 0 "/></g></g></g><g fill="#ffffff" fill-opacity="1"><g transform="translate(114.794561, 235.261211)"><g><path d="M 10.34375 -19.390625 C 11.394531 -19.390625 12.3125 -19.144531 13.09375 -18.65625 C 13.875 -18.175781 14.472656 -17.550781 14.890625 -16.78125 C 15.304688 -16.007812 15.515625 -15.195312 15.515625 -14.34375 C 15.515625 -13.644531 15.359375 -12.960938 15.046875 -12.296875 C 14.742188 -11.628906 14.257812 -11.050781 13.59375 -10.5625 C 14.695312 -10.101562 15.472656 -9.421875 15.921875 -8.515625 C 16.367188 -7.609375 16.59375 -6.695312 16.59375 -5.78125 C 16.59375 -4.832031 16.378906 -3.914062 15.953125 -3.03125 C 15.535156 -2.144531 14.914062 -1.414062 14.09375 -0.84375 C 13.269531 -0.28125 12.25 0 11.03125 0 L 2.359375 0 L 2.359375 -19.390625 Z M 10.28125 -11.546875 C 11.050781 -11.546875 11.632812 -11.828125 12.03125 -12.390625 C 12.4375 -12.960938 12.640625 -13.578125 12.640625 -14.234375 C 12.640625 -14.867188 12.453125 -15.445312 12.078125 -15.96875 C 11.703125 -16.488281 11.125 -16.75 10.34375 -16.75 L 5.09375 -16.75 L 5.09375 -11.546875 Z M 11.03125 -2.6875 C 11.644531 -2.6875 12.15625 -2.835938 12.5625 -3.140625 C 12.976562 -3.441406 13.289062 -3.828125 13.5 -4.296875 C 13.71875 -4.773438 13.828125 -5.265625 13.828125 -5.765625 C 13.828125 -6.273438 13.71875 -6.753906 13.5 -7.203125 C 13.289062 -7.660156 12.976562 -8.039062 12.5625 -8.34375 C 12.15625 -8.644531 11.644531 -8.796875 11.03125 -8.796875 L 5.09375 -8.796875 L 5.09375 -2.6875 Z M 11.03125 -2.6875 "/></g></g></g><g fill="#ffffff" fill-opacity="1"><g transform="translate(132.402542, 235.261211)"><g><path d="M 0.953125 -9.59375 C 0.953125 -10.988281 1.207031 -12.285156 1.71875 -13.484375 C 2.238281 -14.691406 2.953125 -15.753906 3.859375 -16.671875 C 4.773438 -17.585938 5.832031 -18.300781 7.03125 -18.8125 C 8.226562 -19.320312 9.519531 -19.578125 10.90625 -19.578125 C 12.300781 -19.578125 13.601562 -19.320312 14.8125 -18.8125 C 16.019531 -18.300781 17.078125 -17.585938 17.984375 -16.671875 C 18.898438 -15.753906 19.613281 -14.691406 20.125 -13.484375 C 20.632812 -12.285156 20.890625 -10.988281 20.890625 -9.59375 C 20.890625 -8.207031 20.632812 -6.914062 20.125 -5.71875 C 19.613281 -4.519531 18.898438 -3.460938 17.984375 -2.546875 C 17.078125 -1.628906 16.019531 -0.914062 14.8125 -0.40625 C 13.601562 0.101562 12.300781 0.359375 10.90625 0.359375 C 9.519531 0.359375 8.226562 0.101562 7.03125 -0.40625 C 5.832031 -0.914062 4.773438 -1.628906 3.859375 -2.546875 C 2.953125 -3.460938 2.238281 -4.519531 1.71875 -5.71875 C 1.207031 -6.914062 0.953125 -8.207031 0.953125 -9.59375 Z M 3.8125 -9.59375 C 3.8125 -8.28125 4.128906 -7.085938 4.765625 -6.015625 C 5.410156 -4.953125 6.265625 -4.097656 7.328125 -3.453125 C 8.398438 -2.816406 9.59375 -2.5 10.90625 -2.5 C 12.226562 -2.5 13.425781 -2.816406 14.5 -3.453125 C 15.582031 -4.097656 16.441406 -4.953125 17.078125 -6.015625 C 17.722656 -7.085938 18.046875 -8.28125 18.046875 -9.59375 C 18.046875 -10.914062 17.722656 -12.113281 17.078125 -13.1875 C 16.441406 -14.269531 15.582031 -15.128906 14.5 -15.765625 C 13.425781 -16.410156 12.226562 -16.734375 10.90625 -16.734375 C 9.59375 -16.734375 8.398438 -16.410156 7.328125 -15.765625 C 6.265625 -15.128906 5.410156 -14.269531 4.765625 -13.1875 C 4.128906 -12.113281 3.8125 -10.914062 3.8125 -9.59375 Z M 3.8125 -9.59375 "/></g></g></g><g fill="#ffffff" fill-opacity="1"><g transform="translate(154.45365, 235.261211)"><g><path d="M 14.15625 -2.765625 L 14.15625 0 L 2.359375 0 L 2.359375 -19.203125 L 5.125 -19.203125 L 5.125 -2.765625 Z M 14.15625 -2.765625 "/></g></g></g><g fill="#ffffff" fill-opacity="1"><g transform="translate(168.742989, 235.261211)"><g><path d="M 0.953125 -9.59375 C 0.953125 -10.988281 1.207031 -12.285156 1.71875 -13.484375 C 2.238281 -14.691406 2.953125 -15.753906 3.859375 -16.671875 C 4.773438 -17.585938 5.832031 -18.300781 7.03125 -18.8125 C 8.226562 -19.320312 9.519531 -19.578125 10.90625 -19.578125 C 12.300781 -19.578125 13.601562 -19.320312 14.8125 -18.8125 C 16.019531 -18.300781 17.078125 -17.585938 17.984375 -16.671875 C 18.898438 -15.753906 19.613281 -14.691406 20.125 -13.484375 C 20.632812 -12.285156 20.890625 -10.988281 20.890625 -9.59375 C 20.890625 -8.207031 20.632812 -6.914062 20.125 -5.71875 C 19.613281 -4.519531 18.898438 -3.460938 17.984375 -2.546875 C 17.078125 -1.628906 16.019531 -0.914062 14.8125 -0.40625 C 13.601562 0.101562 12.300781 0.359375 10.90625 0.359375 C 9.519531 0.359375 8.226562 0.101562 7.03125 -0.40625 C 5.832031 -0.914062 4.773438 -1.628906 3.859375 -2.546875 C 2.953125 -3.460938 2.238281 -4.519531 1.71875 -5.71875 C 1.207031 -6.914062 0.953125 -8.207031 0.953125 -9.59375 Z M 3.8125 -9.59375 C 3.8125 -8.28125 4.128906 -7.085938 4.765625 -6.015625 C 5.410156 -4.953125 6.265625 -4.097656 7.328125 -3.453125 C 8.398438 -2.816406 9.59375 -2.5 10.90625 -2.5 C 12.226562 -2.5 13.425781 -2.816406 14.5 -3.453125 C 15.582031 -4.097656 16.441406 -4.953125 17.078125 -6.015625 C 17.722656 -7.085938 18.046875 -8.28125 18.046875 -9.59375 C 18.046875 -10.914062 17.722656 -12.113281 17.078125 -13.1875 C 16.441406 -14.269531 15.582031 -15.128906 14.5 -15.765625 C 13.425781 -16.410156 12.226562 -16.734375 10.90625 -16.734375 C 9.59375 -16.734375 8.398438 -16.410156 7.328125 -15.765625 C 6.265625 -15.128906 5.410156 -14.269531 4.765625 -13.1875 C 4.128906 -12.113281 3.8125 -10.914062 3.8125 -9.59375 Z M 3.8125 -9.59375 "/></g></g></g><g fill="#ffffff" fill-opacity="1"><g transform="translate(190.794096, 235.261211)"><g/></g></g><g fill="#ffffff" fill-opacity="1"><g transform="translate(197.623363, 235.261211)"><g><path d="M 11.953125 -14.234375 C 11.828125 -14.796875 11.5625 -15.253906 11.15625 -15.609375 C 10.757812 -15.972656 10.289062 -16.238281 9.75 -16.40625 C 9.207031 -16.582031 8.660156 -16.671875 8.109375 -16.671875 C 7.453125 -16.671875 6.796875 -16.554688 6.140625 -16.328125 C 5.484375 -16.097656 4.953125 -15.726562 4.546875 -15.21875 C 4.390625 -15.019531 4.269531 -14.785156 4.1875 -14.515625 C 4.113281 -14.253906 4.078125 -13.988281 4.078125 -13.71875 C 4.078125 -12.976562 4.289062 -12.425781 4.71875 -12.0625 C 5.15625 -11.695312 5.707031 -11.453125 6.375 -11.328125 C 7.039062 -11.203125 7.734375 -11.101562 8.453125 -11.03125 C 9.109375 -10.945312 9.78125 -10.828125 10.46875 -10.671875 C 11.164062 -10.523438 11.828125 -10.300781 12.453125 -10 C 13.085938 -9.707031 13.640625 -9.316406 14.109375 -8.828125 C 14.578125 -8.335938 14.898438 -7.707031 15.078125 -6.9375 C 15.171875 -6.476562 15.21875 -6.054688 15.21875 -5.671875 C 15.21875 -4.742188 15.007812 -3.914062 14.59375 -3.1875 C 14.1875 -2.46875 13.640625 -1.859375 12.953125 -1.359375 C 12.265625 -0.859375 11.492188 -0.476562 10.640625 -0.21875 C 9.796875 0.0390625 8.945312 0.171875 8.09375 0.171875 C 7.363281 0.171875 6.609375 0.0625 5.828125 -0.15625 C 5.046875 -0.382812 4.320312 -0.710938 3.65625 -1.140625 C 2.988281 -1.566406 2.429688 -2.101562 1.984375 -2.75 C 1.535156 -3.40625 1.265625 -4.160156 1.171875 -5.015625 L 1.15625 -5.546875 L 3.953125 -5.59375 L 3.96875 -5.1875 L 3.96875 -5.296875 C 4.039062 -4.710938 4.289062 -4.210938 4.71875 -3.796875 C 5.15625 -3.390625 5.679688 -3.082031 6.296875 -2.875 C 6.921875 -2.675781 7.523438 -2.578125 8.109375 -2.578125 C 8.804688 -2.578125 9.484375 -2.695312 10.140625 -2.9375 C 10.804688 -3.1875 11.351562 -3.546875 11.78125 -4.015625 C 12.207031 -4.484375 12.421875 -5.046875 12.421875 -5.703125 C 12.421875 -5.898438 12.394531 -6.117188 12.34375 -6.359375 C 12.226562 -6.859375 11.957031 -7.226562 11.53125 -7.46875 C 11.101562 -7.71875 10.585938 -7.894531 9.984375 -8 C 9.378906 -8.113281 8.753906 -8.195312 8.109375 -8.25 C 7.367188 -8.320312 6.613281 -8.4375 5.84375 -8.59375 C 5.070312 -8.75 4.359375 -9 3.703125 -9.34375 C 3.046875 -9.695312 2.5 -10.175781 2.0625 -10.78125 C 1.632812 -11.394531 1.382812 -12.207031 1.3125 -13.21875 L 1.3125 -13.1875 C 1.3125 -13.28125 1.304688 -13.363281 1.296875 -13.4375 C 1.285156 -13.507812 1.28125 -13.582031 1.28125 -13.65625 C 1.28125 -14.84375 1.640625 -15.90625 2.359375 -16.84375 C 2.992188 -17.675781 3.84375 -18.304688 4.90625 -18.734375 C 5.96875 -19.171875 7.054688 -19.390625 8.171875 -19.390625 C 9.160156 -19.390625 10.125 -19.207031 11.0625 -18.84375 C 12.007812 -18.488281 12.8125 -17.941406 13.46875 -17.203125 C 14.125 -16.460938 14.535156 -15.507812 14.703125 -14.34375 Z M 11.953125 -14.234375 "/></g></g></g><g fill="#ffffff" fill-opacity="1"><g transform="translate(213.942289, 235.261211)"><g><path d="M 14.0625 -2.765625 L 14.0625 0 L 2.359375 0 L 2.359375 -19.390625 L 14.046875 -19.390625 L 14.046875 -16.625 L 5.15625 -16.625 L 5.15625 -11.21875 L 13.84375 -11.21875 L 13.84375 -8.421875 L 5.15625 -8.421875 L 5.15625 -2.765625 Z M 14.0625 -2.765625 "/></g></g></g><g fill="#ffffff" fill-opacity="1"><g transform="translate(229.246421, 235.261211)"><g><path d="M 1.0625 -9.546875 C 1.0625 -10.898438 1.304688 -12.164062 1.796875 -13.34375 C 2.296875 -14.519531 2.957031 -15.546875 3.78125 -16.421875 C 4.625 -17.285156 5.640625 -17.988281 6.828125 -18.53125 C 8.015625 -19.082031 9.257812 -19.359375 10.5625 -19.359375 C 12.019531 -19.359375 13.351562 -19.0625 14.5625 -18.46875 C 15.78125 -17.875 16.816406 -17.039062 17.671875 -15.96875 C 18.523438 -14.90625 19.132812 -13.648438 19.5 -12.203125 L 16.75 -12.203125 C 16.238281 -13.648438 15.429688 -14.75 14.328125 -15.5 C 13.222656 -16.25 11.96875 -16.625 10.5625 -16.625 C 9.644531 -16.625 8.753906 -16.425781 7.890625 -16.03125 C 7.035156 -15.632812 6.304688 -15.117188 5.703125 -14.484375 C 5.097656 -13.859375 4.617188 -13.125 4.265625 -12.28125 C 3.921875 -11.445312 3.75 -10.535156 3.75 -9.546875 C 3.75 -8.585938 3.914062 -7.6875 4.25 -6.84375 C 4.59375 -6.007812 5.066406 -5.273438 5.671875 -4.640625 C 6.273438 -4.015625 7.007812 -3.519531 7.875 -3.15625 C 8.75 -2.789062 9.644531 -2.609375 10.5625 -2.609375 C 12.019531 -2.609375 13.316406 -3.007812 14.453125 -3.8125 C 15.597656 -4.613281 16.421875 -5.738281 16.921875 -7.1875 L 19.640625 -7.1875 C 19.265625 -5.738281 18.648438 -4.460938 17.796875 -3.359375 C 16.941406 -2.253906 15.894531 -1.394531 14.65625 -0.78125 C 13.425781 -0.164062 12.0625 0.140625 10.5625 0.140625 C 9.257812 0.140625 8.023438 -0.109375 6.859375 -0.609375 C 5.703125 -1.117188 4.703125 -1.8125 3.859375 -2.6875 C 3.035156 -3.5625 2.363281 -4.585938 1.84375 -5.765625 C 1.320312 -6.953125 1.0625 -8.210938 1.0625 -9.546875 Z M 1.0625 -9.546875 "/></g></g></g><g fill="#ffffff" fill-opacity="1"><g transform="translate(249.926193, 235.261211)"><g><path d="M 9.21875 0.1875 C 8.375 0.1875 7.53125 0.0625 6.6875 -0.1875 C 5.84375 -0.445312 5.078125 -0.820312 4.390625 -1.3125 C 3.710938 -1.8125 3.160156 -2.429688 2.734375 -3.171875 C 2.316406 -3.910156 2.109375 -4.773438 2.109375 -5.765625 L 2.109375 -19.390625 L 4.90625 -19.390625 L 4.90625 -5.734375 C 4.90625 -5.035156 5.125 -4.445312 5.5625 -3.96875 C 6 -3.5 6.546875 -3.148438 7.203125 -2.921875 C 7.867188 -2.691406 8.539062 -2.578125 9.21875 -2.578125 C 9.894531 -2.578125 10.554688 -2.695312 11.203125 -2.9375 C 11.847656 -3.175781 12.390625 -3.53125 12.828125 -4 C 13.265625 -4.476562 13.484375 -5.066406 13.484375 -5.765625 L 13.484375 -19.390625 L 16.28125 -19.390625 L 16.28125 -5.734375 C 16.28125 -4.765625 16.070312 -3.910156 15.65625 -3.171875 C 15.238281 -2.429688 14.679688 -1.8125 13.984375 -1.3125 C 13.285156 -0.820312 12.519531 -0.445312 11.6875 -0.1875 C 10.863281 0.0625 10.039062 0.1875 9.21875 0.1875 Z M 9.21875 0.1875 "/></g></g></g><g fill="#ffffff" fill-opacity="1"><g transform="translate(268.329539, 235.261211)"><g><path d="M 9.34375 -9.734375 C 10.132812 -9.734375 10.785156 -9.894531 11.296875 -10.21875 C 11.804688 -10.550781 12.1875 -10.972656 12.4375 -11.484375 C 12.695312 -11.992188 12.828125 -12.523438 12.828125 -13.078125 C 12.828125 -13.628906 12.695312 -14.175781 12.4375 -14.71875 C 12.1875 -15.269531 11.804688 -15.726562 11.296875 -16.09375 C 10.785156 -16.457031 10.132812 -16.640625 9.34375 -16.640625 L 5.09375 -16.640625 L 5.09375 0 L 2.359375 0 L 2.359375 -19.4375 L 9.34375 -19.4375 C 10.382812 -19.4375 11.296875 -19.25 12.078125 -18.875 C 12.867188 -18.5 13.523438 -18.003906 14.046875 -17.390625 C 14.566406 -16.785156 14.957031 -16.109375 15.21875 -15.359375 C 15.476562 -14.609375 15.609375 -13.847656 15.609375 -13.078125 C 15.609375 -12.179688 15.421875 -11.316406 15.046875 -10.484375 C 14.679688 -9.648438 14.128906 -8.945312 13.390625 -8.375 C 12.648438 -7.800781 11.734375 -7.414062 10.640625 -7.21875 L 16.703125 0 L 13.109375 0 L 6.109375 -8.421875 L 6.109375 -9.734375 Z M 9.34375 -9.734375 "/></g></g></g><g fill="#ffffff" fill-opacity="1"><g transform="translate(284.675876, 235.261211)"><g><path d="M 8.6875 -16.8125 L 8.6875 -2.578125 L 12.25 -2.578125 L 12.25 0 L 2.359375 0 L 2.359375 -2.578125 L 5.921875 -2.578125 L 5.921875 -16.8125 L 2.359375 -16.8125 L 2.359375 -19.359375 L 12.25 -19.359375 L 12.25 -16.8125 Z M 8.6875 -16.8125 "/></g></g></g><g fill="#ffffff" fill-opacity="1"><g transform="translate(299.266924, 235.261211)"><g><path d="M 5.984375 -16.75 L 0.171875 -16.75 L 0.171875 -19.390625 L 14.53125 -19.390625 L 14.53125 -16.75 L 8.75 -16.75 L 8.75 0 L 5.984375 0 Z M 5.984375 -16.75 "/></g></g></g><g fill="#ffffff" fill-opacity="1"><g transform="translate(313.995107, 235.261211)"><g><path d="M 8.25 -10.75 L 13.71875 -19.546875 L 17 -19.546875 L 9.65625 -7.8125 L 9.65625 0 L 6.859375 0 L 6.859375 -7.8125 L -0.40625 -19.546875 L 2.859375 -19.546875 Z M 8.25 -10.75 "/></g></g></g><g fill="#ffffff" fill-opacity="1"><g transform="translate(136.884272, 256.954613)"><g><path d="M 0.625 -5.5625 C 0.625 -6.351562 0.765625 -7.09375 1.046875 -7.78125 C 1.335938 -8.46875 1.722656 -9.066406 2.203125 -9.578125 C 2.691406 -10.085938 3.285156 -10.5 3.984375 -10.8125 C 4.679688 -11.132812 5.40625 -11.296875 6.15625 -11.296875 C 7.007812 -11.296875 7.789062 -11.117188 8.5 -10.765625 C 9.207031 -10.421875 9.8125 -9.9375 10.3125 -9.3125 C 10.8125 -8.695312 11.164062 -7.96875 11.375 -7.125 L 9.78125 -7.125 C 9.476562 -7.96875 9.003906 -8.609375 8.359375 -9.046875 C 7.710938 -9.484375 6.976562 -9.703125 6.15625 -9.703125 C 5.625 -9.703125 5.109375 -9.585938 4.609375 -9.359375 C 4.109375 -9.128906 3.679688 -8.828125 3.328125 -8.453125 C 2.972656 -8.085938 2.691406 -7.660156 2.484375 -7.171875 C 2.285156 -6.679688 2.1875 -6.144531 2.1875 -5.5625 C 2.1875 -5.007812 2.285156 -4.488281 2.484375 -4 C 2.679688 -3.507812 2.957031 -3.078125 3.3125 -2.703125 C 3.664062 -2.335938 4.09375 -2.046875 4.59375 -1.828125 C 5.101562 -1.617188 5.625 -1.515625 6.15625 -1.515625 C 7.007812 -1.515625 7.769531 -1.75 8.4375 -2.21875 C 9.101562 -2.6875 9.582031 -3.34375 9.875 -4.1875 L 11.453125 -4.1875 C 11.242188 -3.34375 10.882812 -2.597656 10.375 -1.953125 C 9.875 -1.304688 9.265625 -0.804688 8.546875 -0.453125 C 7.828125 -0.0976562 7.03125 0.078125 6.15625 0.078125 C 5.40625 0.078125 4.6875 -0.0664062 4 -0.359375 C 3.320312 -0.648438 2.738281 -1.050781 2.25 -1.5625 C 1.769531 -2.082031 1.378906 -2.6875 1.078125 -3.375 C 0.773438 -4.0625 0.625 -4.789062 0.625 -5.5625 Z M 0.625 -5.5625 "/></g></g></g><g fill="#ffffff" fill-opacity="1"><g transform="translate(152.817365, 256.954613)"><g><path d="M 0.5625 -5.59375 C 0.5625 -6.40625 0.707031 -7.160156 1 -7.859375 C 1.300781 -8.566406 1.71875 -9.1875 2.25 -9.71875 C 2.789062 -10.257812 3.410156 -10.675781 4.109375 -10.96875 C 4.804688 -11.269531 5.5625 -11.421875 6.375 -11.421875 C 7.175781 -11.421875 7.929688 -11.269531 8.640625 -10.96875 C 9.347656 -10.675781 9.96875 -10.257812 10.5 -9.71875 C 11.03125 -9.1875 11.441406 -8.566406 11.734375 -7.859375 C 12.035156 -7.160156 12.1875 -6.40625 12.1875 -5.59375 C 12.1875 -4.789062 12.035156 -4.035156 11.734375 -3.328125 C 11.441406 -2.628906 11.03125 -2.015625 10.5 -1.484375 C 9.96875 -0.953125 9.347656 -0.535156 8.640625 -0.234375 C 7.929688 0.0546875 7.175781 0.203125 6.375 0.203125 C 5.5625 0.203125 4.804688 0.0546875 4.109375 -0.234375 C 3.410156 -0.535156 2.789062 -0.953125 2.25 -1.484375 C 1.71875 -2.015625 1.300781 -2.628906 1 -3.328125 C 0.707031 -4.035156 0.5625 -4.789062 0.5625 -5.59375 Z M 2.21875 -5.59375 C 2.21875 -4.832031 2.40625 -4.140625 2.78125 -3.515625 C 3.15625 -2.890625 3.65625 -2.390625 4.28125 -2.015625 C 4.90625 -1.640625 5.601562 -1.453125 6.375 -1.453125 C 7.132812 -1.453125 7.828125 -1.640625 8.453125 -2.015625 C 9.085938 -2.390625 9.59375 -2.890625 9.96875 -3.515625 C 10.34375 -4.140625 10.53125 -4.832031 10.53125 -5.59375 C 10.53125 -6.363281 10.34375 -7.0625 9.96875 -7.6875 C 9.59375 -8.320312 9.085938 -8.828125 8.453125 -9.203125 C 7.828125 -9.578125 7.132812 -9.765625 6.375 -9.765625 C 5.601562 -9.765625 4.90625 -9.578125 4.28125 -9.203125 C 3.65625 -8.828125 3.15625 -8.320312 2.78125 -7.6875 C 2.40625 -7.0625 2.21875 -6.363281 2.21875 -5.59375 Z M 2.21875 -5.59375 "/></g></g></g><g fill="#ffffff" fill-opacity="1"><g transform="translate(169.550274, 256.954613)"><g><path d="M 1.375 0 L 1.375 -11.203125 L 2.6875 -11.203125 L 6.390625 -5.765625 L 10.078125 -11.203125 L 11.359375 -11.203125 L 11.359375 0 L 9.765625 0 L 9.765625 -7.890625 L 6.828125 -3.53125 L 5.921875 -3.53125 L 2.984375 -7.890625 L 2.984375 0 Z M 1.375 0 "/></g></g></g><g fill="#ffffff" fill-opacity="1"><g transform="translate(186.139216, 256.954613)"><g><path d="M 5.46875 -11.203125 C 6.28125 -11.203125 6.953125 -11.019531 7.484375 -10.65625 C 8.015625 -10.289062 8.414062 -9.820312 8.6875 -9.25 C 8.96875 -8.6875 9.109375 -8.085938 9.109375 -7.453125 C 9.109375 -6.835938 8.96875 -6.242188 8.6875 -5.671875 C 8.414062 -5.097656 8.015625 -4.628906 7.484375 -4.265625 C 6.953125 -3.910156 6.28125 -3.734375 5.46875 -3.734375 L 3.015625 -3.734375 L 3.015625 0 L 1.375 0 L 1.375 -11.203125 Z M 5.46875 -5.328125 C 5.925781 -5.328125 6.304688 -5.429688 6.609375 -5.640625 C 6.910156 -5.847656 7.132812 -6.109375 7.28125 -6.421875 C 7.425781 -6.742188 7.5 -7.082031 7.5 -7.4375 C 7.5 -7.800781 7.425781 -8.140625 7.28125 -8.453125 C 7.132812 -8.773438 6.910156 -9.039062 6.609375 -9.25 C 6.304688 -9.457031 5.925781 -9.5625 5.46875 -9.5625 L 3.015625 -9.5625 L 3.015625 -5.328125 Z M 5.46875 -5.328125 "/></g></g></g><g fill="#ffffff" fill-opacity="1"><g transform="translate(199.512929, 256.954613)"><g><path d="M 2.765625 -2.828125 L 1.6875 0 L -0.0625 0 L 4.4375 -11.34375 L 5.609375 -11.34375 L 10.109375 0 L 8.390625 0 L 7.3125 -2.828125 Z M 6.71875 -4.359375 L 5.046875 -8.765625 L 3.359375 -4.359375 Z M 6.71875 -4.359375 "/></g></g></g><g fill="#ffffff" fill-opacity="1"><g transform="translate(213.526482, 256.954613)"><g><path d="M 1.375 -11.203125 L 2.625 -11.203125 L 8.078125 -3.3125 L 8.078125 -11.203125 L 9.6875 -11.203125 L 9.6875 0 L 8.40625 0 L 2.984375 -7.828125 L 2.984375 0 L 1.375 0 Z M 1.375 -11.203125 "/></g></g></g><g fill="#ffffff" fill-opacity="1"><g transform="translate(228.45182, 256.954613)"><g><path d="M 4.8125 -6.265625 L 8 -11.40625 L 9.921875 -11.40625 L 5.625 -4.5625 L 5.625 0 L 4 0 L 4 -4.5625 L -0.234375 -11.40625 L 1.65625 -11.40625 Z M 4.8125 -6.265625 "/></g></g></g></svg>